<?xml version="1.0" encoding="UTF-8"?>
<svg width="172px" height="100px" viewBox="0 0 172 100" version="1.1" xmlns="http://www.w3.org/2000/svg" xmlns:xlink="http://www.w3.org/1999/xlink">
    <title>Group Copy 3</title>
    <g id="Page-1" stroke="none" stroke-width="1" fill="none" fill-rule="evenodd">
        <g id="Group-Copy-3" transform="translate(1.000000, 0.000000)">
            <polygon id="Fill-1" fill="#0071B5" points="111.259031 31.3019234 100.684686 31.3019234 100.684686 58.6579788 93.571833 58.6579788 93.571833 31.3019234 83.0927352 31.3019234 83.0927352 25.6600464 111.259031 25.6600464"></polygon>
            <polygon id="Stroke-2" stroke="#0071B5" stroke-width="0.5" points="111.259031 31.3019234 100.684686 31.3019234 100.684686 58.6579788 93.571833 58.6579788 93.571833 31.3019234 83.0927352 31.3019234 83.0927352 25.6600464 111.259031 25.6600464"></polygon>
            <path d="M90.584698,58.6579788 L80.769199,58.6579788 C76.1227534,58.6579788 72.8191713,57.5358687 70.8590793,55.2916484 C69.0575242,53.2372658 68.1564333,49.9028883 68.1564333,45.2878892 L68.1564333,25.5654408 L74.841926,25.5654408 L74.841926,43.771067 C74.841926,44.1501159 74.841926,44.4978385 74.841926,44.8142347 C74.841926,45.1300044 74.841926,45.3987845 74.841926,45.6199486 C74.841926,48.0220538 75.2053702,49.7606666 75.9328852,50.8351607 C77.0708414,52.5098678 79.2364673,53.3481611 82.4291363,53.3481611 L90.584698,53.3481611 L90.584698,58.6579788 Z" id="Fill-3" fill="#0071B5"></path>
            <path d="M90.584698,58.6579788 L80.769199,58.6579788 C76.1227534,58.6579788 72.8191713,57.5358687 70.8590793,55.2916484 C69.0575242,53.2372658 68.1564333,49.9028883 68.1564333,45.2878892 L68.1564333,25.5654408 L74.841926,25.5654408 L74.841926,43.771067 C74.841926,44.1501159 74.841926,44.4978385 74.841926,44.8142347 C74.841926,45.1300044 74.841926,45.3987845 74.841926,45.6199486 C74.841926,48.0220538 75.2053702,49.7606666 75.9328852,50.8351607 C77.0708414,52.5098678 79.2364673,53.3481611 82.4291363,53.3481611 L90.584698,53.3481611 L90.584698,58.6579788 Z" id="Stroke-4" stroke="#0071B5" stroke-width="0.5"></path>
            <polygon id="Fill-5" fill="#0071B5" points="28.7352741 58.6579788 20.9111986 58.6579788 6.68611935 33.5304805 6.68611935 58.6579788 0 58.6579788 0 25.5654408 8.67754272 25.5654408 22.239023 49.4204624 22.239023 25.5654408 28.7352741 25.5654408"></polygon>
            <polygon id="Stroke-6" stroke="#0071B5" stroke-width="0.5" points="28.7352741 58.6579788 20.9111986 58.6579788 6.68611935 33.5304805 6.68611935 58.6579788 0 58.6579788 0 25.5654408 8.67754272 25.5654408 22.239023 49.4204624 22.239023 25.5654408 28.7352741 25.5654408"></polygon>
            <path d="M137.965284,0.0112774889 L139.00862,0 C139.394622,0.027567195 139.779999,0.0601466074 140.165375,0.0971117098 L141.430536,0.310130944 C141.887348,0.418520143 142.343533,0.531921559 142.798465,0.648455611 L144.261015,1.12085709 C144.778609,1.32134578 145.294324,1.52622016 145.808785,1.73485371 L149.12114,3.42585051 L150.897004,4.54482802 C151.505459,4.97525218 152.110782,5.41006203 152.712345,5.84925757 L154.548991,7.34791053 C155.166846,7.90927887 155.780315,8.47565942 156.389397,9.04642566 L158.213511,10.9535743 C158.814447,11.6559113 159.41037,12.3626339 160.000027,13.0743688 L161.727013,15.4125681 C162.281579,16.2615124 162.829878,17.115469 163.370031,17.9731846 L164.586316,20.1202932 C164.971066,20.8796441 165.350175,21.6421277 165.724272,22.4071173 L166.770114,24.832404 C167.089068,25.6851074 167.402382,26.5396905 167.710056,27.3967797 L168.529059,30.0971117 C168.763417,31.0400351 168.992137,31.984838 169.21271,32.9315206 L169.74597,35.8956206 C169.876309,36.9250047 169.999128,37.9550153 170.1138,38.9856525 L170.28863,41.7749514 C170.305549,42.7141157 170.315575,43.6532799 170.319334,44.5924441 L170.200902,47.4312386 C170.116934,48.3823069 170.026699,49.3333751 169.930199,50.2838168 L169.505345,53.1414072 C169.317983,54.094355 169.123728,55.0454232 168.923208,55.9952384 L168.183787,58.8377921 C167.890525,59.780089 167.591623,60.7211328 167.285829,61.6590439 L166.30077,64.2566255 C165.932939,65.1130882 165.558842,65.9682977 165.179733,66.8203747 L163.922717,69.3421465 C163.464026,70.1697889 163.000321,70.9942986 162.530977,71.8163022 L161.006391,74.2340705 C160.458718,75.0222417 159.906659,75.8066537 159.350214,76.5879331 L157.564951,78.8722511 C156.932683,79.6115532 156.295403,80.3464695 155.653736,81.0776267 L153.696777,83.1219848 C153.010619,83.7785853 152.320702,84.4314266 151.627025,85.0798822 L149.449493,86.9456801 C148.692527,87.5396278 147.931801,88.1291899 147.167315,88.7137397 L144.782996,90.3759163 C143.959607,90.8978134 143.132458,91.4153249 142.302176,91.926571 L139.727989,93.3600652 C138.842563,93.8023933 137.955258,94.2390828 137.06482,94.6695069 L134.354655,95.836727 C133.427872,96.1882088 132.499209,96.5334252 131.56804,96.8723764 L128.709364,97.7689368 C127.736211,98.0264394 126.761805,98.2770503 125.785518,98.5220224 L122.801517,99.1266211 C121.790139,99.2832529 120.777509,99.4336194 119.763625,99.5770942 L116.679989,99.8696824 C115.638533,99.9198045 114.597078,99.9636614 113.554996,100 L110.396791,99.965541 C109.356589,99.9060209 108.317013,99.839609 107.278064,99.7663054 L104.203828,99.4054257 C103.19621,99.2406491 102.189219,99.0683541 101.183482,98.8904204 L98.2207852,98.2237955 C97.2532717,97.9600276 96.2870116,97.6899944 95.3226313,97.4130694 L92.4952863,96.4638807 C91.5760233,96.1086398 90.6586401,95.7477602 89.7437634,95.3812418 L88.6440315,94.902575 C88.2812139,94.7371719 87.919023,94.5705156 87.5574587,94.4032329 L86.4846718,93.8838419 C86.1318803,93.7052816 85.7790889,93.5254683 85.426924,93.344402 L84.382962,92.7861663 C84.0395699,92.594449 83.6968044,92.4014786 83.3546656,92.2085082 L82.3407817,91.6120544 C82.0074157,91.4090596 81.6746763,91.2035587 81.3425635,90.9980578 L75.493619,86.7727586 C75.0129955,86.3686486 74.5336251,85.9620325 74.0561347,85.5529102 L72.6054912,84.2378297 C71.8723366,83.5317336 71.1529678,82.8212518 70.4379854,82.0963599 L68.4052046,79.8696824 C67.7516317,79.0840173 67.1030719,78.2952196 66.4601517,77.5007832 L64.6372912,75.0228682 C64.0733261,74.1758035 63.5150007,73.3249796 62.9629415,72.4710231 L61.4602879,69.8859721 C61.0160088,69.031389 60.5767426,68.1736733 60.1431161,67.312825 L59.0195724,64.799198 C58.7056318,63.9997494 58.3960776,63.1977946 58.0921631,62.3939603 L57.0494544,57.312825 C57.3765541,57.1731095 57.6873615,57.0227429 57.9825033,56.8610989 C58.6016116,58.4581167 59.2000412,60.0645323 59.8680265,61.6408746 L60.9126152,63.9496272 C61.308644,64.751582 61.7084326,65.5522837 62.1119809,66.3504793 L63.4686302,68.7970679 C63.9667994,69.6159389 64.4712348,70.4323037 64.97943,71.2449095 L66.6368607,73.6520268 C67.2277708,74.4314266 67.8236939,75.2064407 68.4240034,75.9776956 L70.3189261,78.1849508 C70.9718723,78.8753837 71.6298316,79.5608045 72.2928039,80.2418395 L73.4514388,81.3470334 L75.5863599,83.1996742 C76.3057287,83.7716935 77.0294839,84.3399536 77.7563723,84.9032016 L79.9527029,86.4626277 C80.6883641,86.9400414 81.4271583,87.4136959 82.1678324,87.8823382 L84.3936146,89.1673454 C85.1342888,89.5564188 85.8774694,89.941733 86.62253,90.322035 L88.8495654,91.3514191 C89.5871064,91.6584174 90.3265273,91.9616565 91.0678281,92.2611365 L94.0831614,93.3162083 C95.0726068,93.6062903 96.063932,93.8901071 97.0571372,94.1664056 L99.9797296,94.8255122 C100.932204,94.9927949 101.885932,95.1531859 102.840912,95.306685 L105.635046,95.6237078 C106.54115,95.6838544 107.447254,95.7389888 108.354611,95.7878579 L110.995848,95.812919 C111.849315,95.7840987 112.702155,95.7502663 113.554996,95.7107951 L117.023381,95.3674582 C118.094288,95.1970428 119.163942,95.017856 120.231716,94.8298979 L123.193159,94.1338262 C124.103649,93.8669256 125.012886,93.5918802 125.919617,93.311196 L128.425502,92.3895746 C129.193747,92.0612744 129.960113,91.7285884 130.723973,91.3896372 L132.830069,90.3320594 C133.474869,89.9693002 134.117163,89.6034083 134.75695,89.2318777 L137.500326,87.4362509 C138.301783,86.8310256 139.097601,86.2182821 139.887152,85.5980202 L141.96317,83.7422467 C142.571626,83.1282501 143.174442,82.5086147 143.772245,81.8845937 L145.353227,80.0306998 C145.820065,79.4185828 146.282516,78.8033331 146.740581,78.1836978 L147.966892,76.3373222 C148.334722,75.7220726 148.698793,75.1043168 149.058477,74.4846814 L150.085521,72.5242779 C150.399461,71.8601591 150.709642,71.1941608 151.016063,70.5269093 L151.86765,68.4725268 C152.13334,67.7626715 152.395897,67.0515632 152.654695,66.3392018 L153.38409,64.105006 C153.612809,63.3187144 153.837768,62.5317963 154.058341,61.7436251 L154.673063,59.2312512 C154.858545,58.3353173 155.039014,57.4381304 155.21447,56.540317 L155.395565,55.4269783 C155.450708,55.0454232 155.505225,54.6632417 155.559115,54.2816866 L155.705746,53.1013094 C155.748983,52.6959464 155.790967,52.2899568 155.832325,51.8839672 L155.936972,50.6271537 C155.964543,50.1935969 155.990862,49.7606666 156.015927,49.3277364 L156.067937,47.9832091 C156.075456,47.519579 156.082349,47.0559489 156.087362,46.5923188 L156.0153,42.2078817 C155.997128,41.8639183 155.977702,41.5199549 155.958277,41.1759915 L155.878695,40.1008709 C155.844857,39.7293403 155.810393,39.3578097 155.774675,38.9862791 L155.52465,36.9726208 C155.414364,36.2884531 155.300318,35.6055385 155.182512,34.9232504 L154.745752,32.8619761 C154.572176,32.1778084 154.395467,31.4936407 154.214998,30.8113527 L153.59401,28.7914291 C153.363411,28.1335756 153.129052,27.4769751 152.89156,26.8222542 L152.118301,24.9188647 C151.845092,24.3105069 151.568749,23.703402 151.289273,23.0975503 L148.896181,18.6573523 L148.122922,17.3961531 C147.865378,16.9901635 147.605954,16.5841739 147.345277,16.1794374 L146.565125,15.0065785 C146.306328,14.6300357 146.046277,14.2534929 145.786227,13.8775766 L142.748961,9.7970052 L137.938339,3.80552597 C137.22461,2.86134954 135.883,1.41156569 136.492082,0.192343838 L137.965284,0.0112774889" id="Fill-7" fill="#8CB2E7"></path>
            <path d="M63.9360946,40.7367959 C63.9360946,47.9744377 62.5449808,52.9208696 59.7633797,55.5760917 C57.6140461,57.6304743 53.9470198,58.6579788 48.7623008,58.6579788 L33.6361307,58.6579788 L33.6361307,25.5654408 L48.5730592,25.5654408 C54.5159979,25.5654408 58.7200443,27.1931583 61.1858249,30.4485934 C63.0193381,32.8826515 63.9360946,36.3116346 63.9360946,40.7367959 Z M56.6340001,42.1113965 C56.6340001,37.3704655 55.7961986,34.2259257 54.1205957,32.6771506 C53.0145975,31.6659357 51.1334607,31.1603283 48.4784384,31.1603283 L40.4168709,31.1603283 L40.4168709,53.0161017 L48.3831909,52.9684857 C51.5758599,52.9684857 53.7490054,52.2417142 54.9032539,50.7875446 C56.0568758,49.3333751 56.6340001,46.4419523 56.6340001,42.1113965 Z" id="Fill-8" fill="#0071B5"></path>
            <path d="M63.9360946,40.7367959 C63.9360946,47.9744377 62.5449808,52.9208696 59.7633797,55.5760917 C57.6140461,57.6304743 53.9470198,58.6579788 48.7623008,58.6579788 L33.6361307,58.6579788 L33.6361307,25.5654408 L48.5730592,25.5654408 C54.5159979,25.5654408 58.7200443,27.1931583 61.1858249,30.4485934 C63.0193381,32.8826515 63.9360946,36.3116346 63.9360946,40.7367959 Z M56.6340001,42.1113965 C56.6340001,37.3704655 55.7961986,34.2259257 54.1205957,32.6771506 C53.0145975,31.6659357 51.1334607,31.1603283 48.4784384,31.1603283 L40.4168709,31.1603283 L40.4168709,53.0161017 L48.3831909,52.9684857 C51.5758599,52.9684857 53.7490054,52.2417142 54.9032539,50.7875446 C56.0568758,49.3333751 56.6340001,46.4419523 56.6340001,42.1113965 Z" id="Stroke-9" stroke="#0071B5" stroke-width="0.5"></path>
            <path d="M145.115108,40.7367959 C145.115108,47.9744377 143.723994,52.9208696 140.942393,55.5760917 C138.792433,57.6304743 135.125407,58.6579788 129.941314,58.6579788 L114.815144,58.6579788 L114.815144,25.5654408 L129.751446,25.5654408 C135.694385,25.5654408 139.899058,27.1931583 142.364839,30.4485934 C144.198352,32.8826515 145.115108,36.3116346 145.115108,40.7367959 Z M137.812387,42.1113965 C137.812387,37.3704655 136.974586,34.2259257 135.299609,32.6771506 C134.192985,31.6659357 132.311848,31.1603283 129.656825,31.1603283 L121.595885,31.1603283 L121.595885,53.0161017 L129.562205,52.9684857 C132.754874,52.9684857 134.928019,52.2417142 136.081641,50.7875446 C137.235889,49.3333751 137.812387,46.4419523 137.812387,42.1113965 Z" id="Fill-10" fill="#0071B5"></path>
            <path d="M145.115108,40.7367959 C145.115108,47.9744377 143.723994,52.9208696 140.942393,55.5760917 C138.792433,57.6304743 135.125407,58.6579788 129.941314,58.6579788 L114.815144,58.6579788 L114.815144,25.5654408 L129.751446,25.5654408 C135.694385,25.5654408 139.899058,27.1931583 142.364839,30.4485934 C144.198352,32.8826515 145.115108,36.3116346 145.115108,40.7367959 Z M137.812387,42.1113965 C137.812387,37.3704655 136.974586,34.2259257 135.299609,32.6771506 C134.192985,31.6659357 132.311848,31.1603283 129.656825,31.1603283 L121.595885,31.1603283 L121.595885,53.0161017 L129.562205,52.9684857 C132.754874,52.9684857 134.928019,52.2417142 136.081641,50.7875446 C137.235889,49.3333751 137.812387,46.4419523 137.812387,42.1113965 Z" id="Stroke-11" stroke="#0071B5" stroke-width="0.5"></path>
        </g>
    </g>
</svg>